<svg width="100%" viewBox="90 40 500 500" role="img" xmlns="http://www.w3.org/2000/svg" style="">
  <title style="fill:rgb(0, 0, 0);stroke:none;color:rgb(255, 255, 255);stroke-width:1px;stroke-linecap:butt;stroke-linejoin:miter;opacity:1;font-family:&quot;Anthropic Sans&quot;, -apple-system, &quot;system-ui&quot;, &quot;Segoe UI&quot;, sans-serif;font-size:16px;font-weight:400;text-anchor:start;dominant-baseline:auto">Banana Roadtrip game logo</title>
  <desc style="fill:rgb(0, 0, 0);stroke:none;color:rgb(255, 255, 255);stroke-width:1px;stroke-linecap:butt;stroke-linejoin:miter;opacity:1;font-family:&quot;Anthropic Sans&quot;, -apple-system, &quot;system-ui&quot;, &quot;Segoe UI&quot;, sans-serif;font-size:16px;font-weight:400;text-anchor:start;dominant-baseline:auto">A colorful iOS game logo featuring a cartoon banana wearing sunglasses driving on a road, with BANANA! text</desc>

  <defs>
    <clipPath id="roundClip">
      <rect x="90" y="40" width="500" height="500" rx="80"/>
    </clipPath>
  </defs>

  <rect x="90" y="40" width="500" height="500" rx="80" fill="#87CEEB"/>
  <ellipse cx="180" cy="120" rx="55" ry="28" fill="white" opacity="0.85"/>
  <ellipse cx="220" cy="110" rx="38" ry="22" fill="white" opacity="0.85"/>
  <ellipse cx="155" cy="118" rx="32" ry="20" fill="white" opacity="0.85"/>
  <ellipse cx="490" cy="140" rx="60" ry="30" fill="white" opacity="0.8"/>
  <ellipse cx="530" cy="130" rx="40" ry="22" fill="white" opacity="0.8"/>
  <ellipse cx="465" cy="138" rx="35" ry="22" fill="white" opacity="0.8"/>

  <text x="340" y="218" text-anchor="middle" font-family="Arial Black, Arial, sans-serif" font-weight="900" font-size="58" fill="#FFD700" stroke="#C8960C" stroke-width="4" paint-order="stroke">BANANA!</text>

  <rect x="90" y="390" width="500" height="150" fill="#5DBB63" clip-path="url(#roundClip)"/>
  <rect x="200" y="370" width="280" height="170" fill="#555" clip-path="url(#roundClip)"/>
  <rect x="332" y="390" width="16" height="40" rx="3" fill="#FFD700" opacity="0.9"/>
  <rect x="332" y="450" width="16" height="40" rx="3" fill="#FFD700" opacity="0.9"/>
  <rect x="332" y="510" width="16" height="30" rx="3" fill="#FFD700" opacity="0.9" clip-path="url(#roundClip)"/>

  <ellipse cx="340" cy="340" rx="92" ry="62" fill="#D72638"/>
  <rect x="260" y="300" width="160" height="50" rx="24" fill="#E63946"/>
  <circle cx="280" cy="365" r="26" fill="#1d3557"/>
  <circle cx="400" cy="365" r="26" fill="#1d3557"/>
  <circle cx="280" cy="365" r="14" fill="#A8DADC"/>
  <circle cx="400" cy="365" r="14" fill="#A8DADC"/>
  <rect x="302" y="322" width="76" height="12" rx="6" fill="#6C757D"/>
  <rect x="322" y="287" width="36" height="30" rx="8" fill="#6C757D"/>

  <path d="M340 210 C315 220, 300 250, 310 292 C317 324, 338 336, 362 326 C382 316, 393 289, 388 255 C384 226, 362 203, 340 210 Z" fill="#FFD84D" stroke="#C8960C" stroke-width="4"/>
  <path d="M344 206 C353 195, 362 190, 370 188" stroke="#8D5A2B" stroke-width="4" fill="none" stroke-linecap="round"/>
  <path d="M329 223 C320 231, 314 242, 313 254" stroke="#FFF1A8" stroke-width="4" fill="none" stroke-linecap="round" opacity="0.8"/>

  <rect x="318" y="258" width="18" height="16" rx="4" fill="#1a1a1a"/>
  <rect x="344" y="258" width="18" height="16" rx="4" fill="#1a1a1a"/>
  <rect x="336" y="262" width="8" height="4" rx="2" fill="#1a1a1a"/>
  <ellipse cx="323" cy="266" rx="4" ry="3" fill="#4DAADD" opacity="0.7"/>
  <ellipse cx="349" cy="266" rx="4" ry="3" fill="#4DAADD" opacity="0.7"/>
  <line x1="318" y1="266" x2="310" y2="264" stroke="#1a1a1a" stroke-width="2"/>
  <line x1="362" y1="266" x2="370" y2="264" stroke="#1a1a1a" stroke-width="2"/>

  <path d="M330 284 Q340 292 350 284" stroke="#A0522D" stroke-width="2" fill="none" stroke-linecap="round"/>

  <circle cx="305" cy="308" r="8" fill="#FFD700" stroke="#C8960C" stroke-width="1.5"/>
  <circle cx="375" cy="308" r="8" fill="#FFD700" stroke="#C8960C" stroke-width="1.5"/>
  <circle cx="340" cy="315" r="18" fill="none" stroke="#555" stroke-width="3"/>
  <circle cx="340" cy="315" r="5" fill="#555"/>
  <line x1="305" y1="308" x2="325" y2="315" stroke="#555" stroke-width="2.5"/>
  <line x1="375" y1="308" x2="355" y2="315" stroke="#555" stroke-width="2.5"/>

  <line x1="150" y1="290" x2="230" y2="290" stroke="white" stroke-width="3" stroke-linecap="round" opacity="0.7"/>
  <line x1="130" y1="310" x2="225" y2="310" stroke="white" stroke-width="2" stroke-linecap="round" opacity="0.5"/>
  <line x1="155" y1="330" x2="230" y2="330" stroke="white" stroke-width="2" stroke-linecap="round" opacity="0.45"/>

  <rect x="90" y="40" width="500" height="500" rx="80" fill="none" stroke="#FFD700" stroke-width="5"/>
</svg>
